<svg viewBox="0 0 24 24" fill="none"
  xmlns="http://www.w3.org/2000/svg">
  <path d="M21.0421 3H19.4999V4.90781C19.4999 5.9625 18.4124 6.75 17.2874 6.75C16.1624 6.75 14.9999 5.9625 14.9999 4.90781V3H8.99988V4.90781C8.99988 5.9625 7.87488 6.75 6.74988 6.75C5.62488 6.75 4.49988 5.9625 4.49988 4.90781V3H2.95769C2.15144 3 1.49988 3.62344 1.49988 4.37813V21.1359C1.49988 21.8906 2.15144 22.5 2.95769 22.5H21.0421C21.8483 22.5 22.4999 21.8906 22.4999 21.1312V4.37813C22.4999 3.62344 21.8483 3 21.0421 3ZM20.2499 19.6828C20.2499 19.9922 19.978 20.2453 19.6499 20.2453L4.34519 20.25C4.01707 20.2359 3.74988 19.9875 3.74988 19.6781V8.82656C3.74988 8.50313 4.02644 8.25 4.37332 8.25H19.6311C19.9733 8.25 20.2499 8.49844 20.2499 8.81719V19.6828Z" />
  <path d="M8.25 4.5C8.25 5.32969 7.57969 6 6.75 6C5.92031 6 5.25 5.32969 5.25 4.5V3C5.25 2.17031 5.92031 1.5 6.75 1.5C7.57969 1.5 8.25 2.17031 8.25 3V4.5Z" />
  <path d="M18.7501 4.5C18.7501 5.32969 18.0798 6 17.2501 6C16.4204 6 15.7501 5.32969 15.7501 4.5V3C15.7501 2.17031 16.4204 1.5 17.2501 1.5C18.0798 1.5 18.7501 2.17031 18.7501 3V4.5Z" />
</svg>
