<svg viewBox="0 0 24 24" fill="none"
  xmlns="http://www.w3.org/2000/svg">
  <path d="M15.5 15C14.675 15 14 15.675 14 16.5C14 17.325 14.675 18 15.5 18C16.325 18 17 17.325 17 16.5C17 15.675 16.325 15 15.5 15Z" />
  <path d="M18.8993 8.41141C18.7945 8.29736 18.6548 8.2159 18.4802 8.2159H8.23036L7.75891 6.37474C7.70653 6.14664 7.49698 6 7.25253 6H5.52383C5.227 5.99997 5 6.21179 5 6.48879C5 6.76579 5.227 6.97757 5.52383 6.97757H6.83345L8.52722 13.6253C8.57959 13.8534 8.78915 14 9.0336 14H17.1881C17.4325 14 17.6421 13.8534 17.6945 13.6253L18.9866 8.81873C19.0215 8.67209 18.9866 8.52545 18.8993 8.41141Z" />
  <path d="M10.5 15C9.67499 15 9 15.675 9 16.5C9 17.325 9.67499 18 10.5 18C11.325 18 12 17.325 12 16.5C12 15.675 11.325 15 10.5 15Z" />
</svg>
