<svg viewBox="0 0 50 50" fill="none" xmlns="http://www.w3.org/2000/svg">
<g clip-path="url(#clip0)">
<ellipse cx="24.375" cy="25" rx="25" ry="25" fill="#E3F8FA"/>
<g clip-path="url(#clip1)">
<path d="M20.2536 34.4512C20.3345 34.4922 20.4 34.5577 20.4409 34.6386L20.8361 35.4207L21.7162 35.3722C21.724 35.372 21.7318 35.3717 21.7396 35.3717C21.8226 35.3717 21.9037 35.3958 21.9728 35.4415L22.7055 35.9247L23.4379 35.4415C23.5139 35.3916 23.604 35.3672 23.6946 35.3722L24.5748 35.4207L24.97 34.6386C25.011 34.5577 25.0765 34.4922 25.1574 34.4512L25.9395 34.056L25.891 33.176C25.886 33.0852 25.9104 32.9953 25.9603 32.9194L26.4435 32.1867L25.9603 31.4542C25.9104 31.3783 25.886 31.2882 25.891 31.1976L25.9395 30.3173L25.1574 29.9221C25.0765 29.8814 25.011 29.8157 24.97 29.735L24.5748 28.9527L23.6946 29.0012C23.604 29.0064 23.5139 28.9822 23.4379 28.9321L22.7055 28.4489L21.9728 28.9321C21.8969 28.9825 21.807 29.0066 21.7162 29.0016L20.8359 28.9531L20.4409 29.735C20.4002 29.8159 20.3345 29.8814 20.2538 29.9224L19.4715 30.3173L19.52 31.1976C19.5249 31.2884 19.5006 31.3783 19.4507 31.4542L18.9677 32.1867L19.4507 32.9194C19.5006 32.9953 19.5249 33.0852 19.52 33.176L19.4715 34.0563L20.2536 34.4512ZM22.7055 29.6104C24.1286 29.6104 25.282 30.7638 25.282 32.1869C25.282 33.61 24.1286 34.7637 22.7055 34.7637C21.2824 34.7637 20.1287 33.61 20.1287 32.1869C20.1304 30.7646 21.2829 29.6118 22.7055 29.6104Z" fill="#8CE1EB"/>
<path d="M22.7089 36.8561C22.627 36.8561 22.5471 36.8317 22.4792 36.7861L21.6377 36.2263L20.9495 36.265V40L22.492 39.0459C22.6195 38.9631 22.7836 38.9631 22.9111 39.0459L24.4612 40V36.265L23.7736 36.2263L22.9404 36.7861C22.8718 36.8317 22.7914 36.8561 22.7089 36.8561Z" fill="#8CE1EB"/>
<path d="M33.4853 17.162L29.1234 13.1085V16.5365C29.1234 16.865 29.4273 17.162 29.7884 17.162H33.4853Z" fill="#8CE1EB"/>
<path d="M24.4342 32.1866C24.4342 33.1417 23.6601 33.9157 22.7053 33.9157C21.7503 33.9157 20.9762 33.1417 20.9762 32.1866C20.9762 31.2319 21.7503 30.4578 22.7053 30.4578C23.6601 30.4578 24.4342 31.2319 24.4342 32.1866Z" fill="#8CE1EB"/>
<path d="M34.2095 35.1861V18.0097H29.7886C28.9599 18.0097 28.2759 17.3323 28.2759 16.5365V12.5H17.5645C16.6085 12.5 15.8035 13.2218 15.8035 14.1125V35.1861C15.8035 36.0765 16.6085 36.8395 17.5645 36.8395H20.1022V35.7887L19.7621 35.1452L18.8421 34.6877C18.6919 34.6118 18.6009 34.4543 18.6101 34.2862L18.6662 33.2689L18.1063 32.4201C18.0129 32.2784 18.0129 32.0949 18.1063 31.9535L18.6662 31.1044L18.6101 30.0872C18.6009 29.919 18.6919 29.7615 18.8421 29.6856L19.7472 29.2284L20.2046 28.3233C20.2806 28.1729 20.4381 28.0818 20.6062 28.0911L21.6235 28.1471L22.4723 27.5873C22.6139 27.4941 22.7975 27.4941 22.9389 27.5873L23.788 28.1471L24.8052 28.0911C24.9733 28.0818 25.1309 28.1729 25.2068 28.3233L25.664 29.2284L26.5691 29.6856C26.7195 29.7615 26.8105 29.9193 26.8011 30.0872L26.745 31.1044L27.3046 31.9535C27.3978 32.0951 27.3976 32.2787 27.3041 32.4201L26.7434 33.2689L26.798 34.2862C26.8056 34.455 26.7131 34.6125 26.5617 34.6877L25.6493 35.1452L25.3092 35.7887V36.8395H32.4482C33.4041 36.8395 34.2095 36.0765 34.2095 35.1861ZM27.1861 25.2147H18.3464C18.1123 25.2147 17.9226 25.025 17.9226 24.7908C17.9226 24.5567 18.1123 24.367 18.3464 24.367H27.1861C27.42 24.367 27.6099 24.5567 27.6099 24.7908C27.6099 25.025 27.42 25.2147 27.1861 25.2147ZM31.6665 22.9745H18.3464C18.1123 22.9745 17.9226 22.7848 17.9226 22.5506C17.9226 22.3165 18.1123 22.1268 18.3464 22.1268H31.6665C31.9004 22.1268 32.0903 22.3165 32.0903 22.5506C32.0903 22.7848 31.9004 22.9745 31.6665 22.9745ZM31.6665 20.7948H18.3464C18.1123 20.7948 17.9226 20.6051 17.9226 20.371C17.9226 20.1368 18.1123 19.9472 18.3464 19.9472H31.6665C31.9004 19.9472 32.0903 20.1368 32.0903 20.371C32.0903 20.6051 31.9004 20.7948 31.6665 20.7948Z" fill="#26C6DA"/>
</g>
</g>
<defs>
<clipPath id="clip0">
<rect width="50" height="50" fill="white"/>
</clipPath>
<clipPath id="clip1">
<rect x="11.25" y="12.5" width="27.5" height="27.5" fill="white"/>
</clipPath>
</defs>
</svg>
