<svg viewBox="0 0 14 19" fill="none"
  xmlns="http://www.w3.org/2000/svg">
  <path d="M3.97011 0.830925L0.601866 4.19917H1.97011C3.07468 4.19917 3.97011 3.30374 3.97011 2.19917V0.830925Z" />
  <path fill-rule="evenodd" clip-rule="evenodd" d="M0.601868 1.83093C0.601868 1.27864 1.04958 0.830925 1.60187 0.830925H11.7275C12.2798 0.830925 12.7275 1.27864 12.7275 1.83092V10.6874C12.0482 10.2944 11.2594 10.0695 10.4182 10.0695C7.8667 10.0695 5.79858 12.1376 5.79858 14.6885C5.79858 15.53 6.02355 16.319 6.41663 16.9985H1.60187C1.04958 16.9985 0.601868 16.5508 0.601868 15.9985V1.83093ZM2.79122 4.29539C2.51218 4.29539 2.28598 4.5216 2.28598 4.80063C2.28598 5.07966 2.51218 5.30587 2.79122 5.30587H10.5382C10.8172 5.30587 11.0434 5.07966 11.0434 4.80063C11.0434 4.5216 10.8172 4.29539 10.5382 4.29539H2.79122ZM2.28598 6.82157C2.28598 6.54254 2.51218 6.31634 2.79122 6.31634H10.5382C10.8172 6.31634 11.0434 6.54254 11.0434 6.82157C11.0434 7.10061 10.8172 7.32681 10.5382 7.32681H2.79122C2.51218 7.32681 2.28598 7.10061 2.28598 6.82157ZM2.79122 8.48164C2.51218 8.48164 2.28598 8.70784 2.28598 8.98687C2.28598 9.26591 2.51218 9.49211 2.79122 9.49211H6.40005C6.67908 9.49211 6.90528 9.26591 6.90528 8.98687C6.90528 8.70784 6.67908 8.48164 6.40005 8.48164H2.79122Z" />
  <path fill-rule="evenodd" clip-rule="evenodd" d="M14 14.6404C14 16.6456 12.3747 18.2709 10.37 18.2709C8.36486 18.2709 6.73956 16.6456 6.73956 14.6404C6.73956 12.6358 8.36486 11.0105 10.37 11.0105C12.3747 11.0105 14 12.6358 14 14.6404ZM9.85117 14.6221C9.85117 14.346 10.075 14.1221 10.3512 14.1221H10.3884C10.6645 14.1221 10.8884 14.346 10.8884 14.6221V16.7337C10.8884 17.0099 10.6645 17.2337 10.3884 17.2337H10.3512C10.075 17.2337 9.85117 17.0099 9.85117 16.7337V14.6221ZM10.3512 12.5663C10.075 12.5663 9.85117 12.7901 9.85117 13.0663V13.1035C9.85117 13.3796 10.075 13.6035 10.3512 13.6035H10.3884C10.6645 13.6035 10.8884 13.3796 10.8884 13.1035V13.0663C10.8884 12.7901 10.6645 12.5663 10.3884 12.5663H10.3512Z" />
</svg>
