<svg viewBox="0 0 50 50" fill="none"
  xmlns="http://www.w3.org/2000/svg">
  <circle cx="25" cy="25" r="25" fill="#DEEDDA"/>
  <g clip-path="url(#clip0)">
    <path d="M24.9999 24.7266C27.7794 24.7266 30.0329 21.9896 30.0329 18.6134C30.0329 15.237 29.2931 12.5 24.9999 12.5C20.7066 12.5 19.9666 15.237 19.9666 18.6134C19.9666 21.9896 22.2201 24.7266 24.9999 24.7266Z" fill="#58A444"/>
    <path d="M15.4931 34.0609C15.4923 33.8551 15.4914 34.0029 15.4931 34.0609V34.0609Z" fill="#58A444"/>
    <path d="M34.5058 34.2217C34.5085 34.1654 34.5067 33.8307 34.5058 34.2217V34.2217Z" fill="#58A444"/>
    <path d="M34.4951 33.8141C34.4019 27.9325 33.6337 26.2566 27.7557 25.1957C27.7557 25.1957 26.9282 26.2501 24.9997 26.2501C23.0711 26.2501 22.2435 25.1957 22.2435 25.1957C16.4296 26.245 15.6147 27.8961 15.5076 33.623C15.4988 34.0907 15.4947 34.1152 15.4932 34.061C15.4935 34.1627 15.4939 34.3508 15.4939 34.6789C15.4939 34.6789 16.8934 37.5 24.9997 37.5C33.1058 37.5 34.5054 34.6789 34.5054 34.6789C34.5054 34.4681 34.5055 34.3215 34.5057 34.2218C34.5042 34.2554 34.501 34.1903 34.4951 33.8141Z" fill="#58A444"/>
  </g>
  <defs>
    <clipPath id="clip0">
      <rect x="12.5" y="12.5" width="25" height="25" fill="white"/>
    </clipPath>
  </defs>
</svg>
