<svg viewBox="0 0 50 50" fill="none" xmlns="http://www.w3.org/2000/svg">
  <circle cx="25" cy="25" r="25" fill="#FFE6E2"/>
  <path d="M33.5934 22.3953H20.573C20.1465 22.3953 19.7918 22.75 19.7918 23.1766V30.5203C20.6559 30.8641 21.3746 31.4891 21.834 32.2906H33.5934C34.0199 32.2906 34.3746 31.936 34.3746 31.5094V23.1766C34.3746 22.75 34.0199 22.3953 33.5934 22.3953ZM31.5105 29.1672H28.3855C27.959 29.1672 27.6043 28.8125 27.6043 28.386C27.6043 27.9594 27.959 27.6047 28.3855 27.6047H31.5105C31.9371 27.6047 32.2918 27.9594 32.2918 28.386C32.2918 28.8125 31.9371 29.1672 31.5105 29.1672Z" fill="#FD907E"/>
  <path d="M29.4258 12.5H20.5711C20.1399 12.5 19.7899 12.85 19.7899 13.2812V20.5734C19.7899 21.0047 20.1399 21.3547 20.5711 21.3547H29.4258C29.8571 21.3547 30.2071 21.0047 30.2071 20.5734V13.2812C30.2071 12.85 29.8571 12.5 29.4258 12.5ZM27.343 19.7922H25.2602C24.8289 19.7922 24.4789 19.4422 24.4789 19.0109C24.4789 18.5797 24.8289 18.2297 25.2602 18.2297H27.343C27.7742 18.2297 28.1242 18.5797 28.1242 19.0109C28.1242 19.4422 27.7742 19.7922 27.343 19.7922Z" fill="#FD907E"/>
  <path d="M37.1516 35.6813L35.7516 34.4328C35.1563 33.7328 34.2954 33.3344 33.3735 33.3344H21.1626C20.7891 32.2828 19.8751 31.4906 18.7501 31.3V14.625C18.7501 13.4875 17.8251 12.5531 16.6907 12.5422L13.5563 12.5C13.5501 12.5 13.5454 12.5 13.5422 12.5C12.9735 12.5 12.5079 12.9578 12.5001 13.5281C12.4922 14.1031 12.9532 14.575 13.5266 14.5828L16.6657 14.625V31.6812C15.736 32.2234 15.1032 33.2203 15.1032 34.3719C15.1032 36.0953 16.5047 37.4969 18.2282 37.4969C19.5829 37.4969 20.7282 36.625 21.161 35.4172H33.3735C33.6907 35.4172 33.9876 35.5594 34.1876 35.8094C34.2235 35.8547 34.2641 35.8969 34.3063 35.9344L35.7641 37.2359C35.9626 37.4125 36.211 37.5 36.4579 37.5C36.7438 37.5 37.0298 37.3828 37.2344 37.1516C37.6188 36.7234 37.5813 36.0641 37.1516 35.6813Z" fill="#FC573B"/>
</svg>
