<svg viewBox="0 0 32 32" fill="none"
  xmlns="http://www.w3.org/2000/svg">
  <path d="M15.3097 12.37C15.1127 12.173 14.7932 12.173 14.5962 12.37C14.3991 12.567 14.3991 12.8865 14.5962 13.0835L22.426 20.9134C22.5266 21.0139 22.582 21.1476 22.582 21.2899C22.582 21.4321 22.5266 21.5658 22.426 21.6663C22.2185 21.8739 21.8807 21.8738 21.6733 21.6663L10.3336 10.3267C10.126 10.1191 10.126 9.78146 10.3335 9.5739C10.5411 9.36633 10.8789 9.3664 11.0864 9.57383L13.4394 11.9276C13.6364 12.1248 13.9558 12.1248 14.1529 11.9278C14.3499 11.7308 14.3499 11.4113 14.153 11.2143L11.7999 8.86033C11.1989 8.2594 10.221 8.25933 9.61998 8.86033C9.23448 9.24583 9.09766 9.78614 9.20666 10.2828L8.31504 12.1946L5.81379 17.4789L4.66735 19.9013C4.66735 19.9013 4.66735 19.9013 4.66729 19.9014L3.10804 23.1956C3.10798 23.1958 3.10785 23.1959 3.10779 23.1961L2.0106 25.5141C2.01054 25.5142 2.01054 25.5143 2.01048 25.5144L0.205288 29.3282C0.199101 29.3417 -0.389712 30.6992 0.455538 31.5444C0.807913 31.8966 1.24866 32 1.64473 32C2.19979 32 2.66673 31.7969 2.67735 31.7919L8.19241 29.1814C8.19285 29.1813 8.19329 29.1811 8.19373 29.1809L12.866 26.9694C12.8662 26.9693 12.8664 26.9691 12.8665 26.9691L19.8014 23.6866C19.8017 23.6864 19.802 23.6864 19.8022 23.6863L21.7211 22.794C21.8293 22.8175 21.9394 22.8304 22.0496 22.8304C22.4443 22.8304 22.8389 22.6802 23.1394 22.3798C23.4305 22.0888 23.591 21.7016 23.591 21.2898C23.591 20.8781 23.4306 20.491 23.1395 20.1998L15.3097 12.37ZM7.72429 15.8018C7.77016 15.841 7.81466 15.8821 7.8576 15.9251C8.75241 16.8198 8.75241 18.2758 7.8576 19.1705C7.42454 19.6037 6.84866 19.8422 6.23616 19.8422H6.2361C6.09823 19.8422 5.96223 19.8302 5.82879 19.8063L7.72429 15.8018ZM3.85329 23.9797C3.96429 24.024 4.06579 24.0904 4.15185 24.1765C4.50091 24.5256 4.50091 25.0934 4.15185 25.4426C3.98273 25.6116 3.75798 25.7049 3.51885 25.7049C3.36598 25.7049 3.21891 25.6668 3.08866 25.5951L3.85329 23.9797ZM19.6967 22.6224L17.854 20.7796C17.6569 20.5827 17.3375 20.5826 17.1405 20.7796C16.9434 20.9766 16.9434 21.296 17.1405 21.4931L18.7263 23.0791L13.0394 25.771C12.9025 25.2736 12.6504 24.8109 12.3001 24.4258C12.1127 24.2196 11.7935 24.2046 11.5874 24.392C11.3812 24.5794 11.366 24.8986 11.5535 25.1046C11.8369 25.4163 12.0279 25.801 12.1073 26.2121L8.0891 28.1141C7.3391 27.2134 7.38641 25.8688 8.2311 25.0241C8.77673 24.4785 9.55466 24.2446 10.3122 24.3978C10.5852 24.453 10.8515 24.2766 10.9069 24.0035C10.9622 23.7304 10.7857 23.4641 10.5125 23.4088C9.42266 23.1879 8.30304 23.5251 7.5176 24.3106C6.36379 25.4644 6.24423 27.2661 7.15748 28.5551L2.2601 30.8731C2.05423 30.9532 1.4451 31.1068 1.1691 30.8307C0.892226 30.5539 1.04604 29.9459 1.12604 29.7414L2.6566 26.5078C2.92054 26.6421 3.2141 26.7138 3.51891 26.7138C4.0276 26.7138 4.50579 26.5156 4.86541 26.156C5.60785 25.4136 5.60785 24.2054 4.86541 23.4629C4.69648 23.2939 4.49973 23.1604 4.28541 23.0666L5.38641 20.7406C5.6621 20.8139 5.94629 20.8512 6.23598 20.8513C6.2361 20.8513 6.23604 20.8513 6.23616 20.8513C7.11816 20.8513 7.94754 20.5078 8.57116 19.884C9.85941 18.5958 9.85941 16.4998 8.57116 15.2116C8.44529 15.0857 8.30985 14.971 8.16648 14.8675L8.92091 13.2736L16.0082 20.3608C16.2052 20.5578 16.5247 20.5576 16.7217 20.3608C16.9187 20.1637 16.9187 19.8443 16.7217 19.6472L9.37766 12.3035L9.85654 11.2767L20.7243 22.1446L19.6967 22.6224Z" />
  <path d="M11.9828 18.316C11.5285 18.316 11.1013 18.493 10.7801 18.8143C10.1169 19.4775 10.1169 20.5566 10.7801 21.2197C11.1014 21.541 11.5286 21.7179 11.9829 21.7179C12.4372 21.7179 12.8644 21.541 13.1856 21.2197C13.8487 20.5565 13.8487 19.4774 13.1856 18.8142C12.8643 18.493 12.4371 18.316 11.9828 18.316ZM12.4721 20.5062C12.3414 20.6369 12.1677 20.7087 11.9829 20.7087C11.798 20.7087 11.6243 20.6369 11.4936 20.506C11.2239 20.2363 11.2239 19.7975 11.4936 19.5277C11.6243 19.3971 11.7981 19.3251 11.9829 19.3251C12.1677 19.3251 12.3414 19.397 12.4721 19.5277C12.7418 19.7975 12.7417 20.2364 12.4721 20.5062Z" />
  <path d="M31.5831 11.7996C29.0731 11.3566 28.2788 13.0036 27.6986 14.2063C27.1213 15.4027 26.8038 16.062 25.3223 15.4361C23.9481 14.8553 22.8017 14.7847 21.9145 15.2263C21.2072 15.5784 20.9474 16.1317 20.9202 16.1936C20.8078 16.4485 20.9235 16.7464 21.1785 16.8587C21.2447 16.8879 21.3137 16.9017 21.3817 16.9017C21.5755 16.9017 21.7603 16.7893 21.8436 16.6005C21.8493 16.5874 22.4437 15.3152 24.9296 16.3656C25.9718 16.806 26.7928 16.7933 27.4392 16.3264C27.9868 15.9311 28.3023 15.2771 28.6074 14.6447C29.1902 13.437 29.6507 12.483 31.4075 12.7934C31.6818 12.842 31.9436 12.6588 31.9921 12.3843C32.0406 12.1099 31.8575 11.8482 31.5831 11.7996Z" />
  <path d="M15.3914 10.1601L15.3994 10.1564L15.8063 11.0798C15.8682 11.0525 16.4214 10.7928 16.7735 10.0854C17.215 9.19845 17.1443 8.05195 16.5636 6.67758C15.9378 5.1967 16.558 4.89751 17.7934 4.30151C18.9961 3.72133 20.6433 2.92664 20.2 0.417013C20.1516 0.142638 19.89 -0.0404867 19.6155 0.00795078C19.341 0.0563883 19.1578 0.318201 19.2063 0.592513C19.5168 2.34976 18.5627 2.81001 17.355 3.3927C16.7226 3.69776 16.0686 4.01326 15.6733 4.56089C15.2065 5.20739 15.1937 6.0282 15.6341 7.07039C16.6643 9.50833 15.4438 10.1346 15.3914 10.1601Z" />
  <path d="M19.2097 12.2053C18.9443 12.2903 18.798 12.5743 18.8831 12.8397C18.9517 13.0539 19.1499 13.1905 19.3633 13.1905C19.4143 13.1905 19.4664 13.1828 19.5175 13.1664C21.5767 12.5068 22.8302 11.0363 22.9567 9.13159C23.0202 8.17672 23.3545 7.43209 23.9508 6.91822C25.1013 5.92678 26.8803 6.06028 26.8983 6.0619C27.1755 6.08553 27.4194 5.8799 27.4434 5.60265C27.4675 5.32503 27.2619 5.08053 26.9843 5.05647C26.8947 5.04865 24.7753 4.88122 23.2983 6.14847C22.4856 6.84565 22.032 7.82684 21.9498 9.06478C21.8113 11.1516 19.9874 11.9562 19.2097 12.2053Z" />
  <path d="M12.3988 7.53505C12.7809 7.53505 13.1399 7.3863 13.41 7.11624C13.6802 6.84618 13.8289 6.48705 13.8289 6.10505C13.8289 5.72305 13.6802 5.36393 13.4101 5.0938C13.14 4.82374 12.7809 4.67493 12.3988 4.67493C12.0168 4.67493 11.6578 4.82374 11.3877 5.0938C10.8301 5.65143 10.8301 6.55861 11.3877 7.11618C11.6578 7.38636 12.0168 7.53505 12.3988 7.53505ZM12.1012 5.80736C12.1807 5.7278 12.2864 5.68405 12.3988 5.68405C12.5113 5.68405 12.617 5.7278 12.6965 5.80736C12.7761 5.88686 12.8198 5.99261 12.8198 6.10505C12.8198 6.21743 12.7761 6.32318 12.6965 6.40268C12.617 6.48218 12.5113 6.52593 12.3988 6.52593C12.2864 6.52593 12.1807 6.48211 12.1012 6.40261C11.937 6.23855 11.937 5.97155 12.1012 5.80736Z" />
  <path d="M25.5216 8.82775C25.2515 9.09787 25.1028 9.457 25.1028 9.839C25.1028 10.221 25.2515 10.5801 25.5216 10.8502C25.7917 11.1203 26.1509 11.2691 26.5328 11.2691C26.9148 11.2691 27.2739 11.1204 27.544 10.8502C27.814 10.5802 27.9629 10.221 27.9629 9.83906C27.9629 9.45706 27.814 9.098 27.544 8.82787C27.2738 8.55781 26.9147 8.40906 26.5328 8.40906C26.1509 8.40893 25.7917 8.55768 25.5216 8.82775ZM26.8304 9.54137C26.91 9.62081 26.9538 9.72656 26.9538 9.839C26.9538 9.95143 26.91 10.0572 26.8303 10.1367C26.7508 10.2162 26.6452 10.2599 26.5327 10.2599C26.4202 10.2599 26.3145 10.2162 26.235 10.1367C26.1555 10.0572 26.1117 9.95143 26.1117 9.839C26.1117 9.72656 26.1555 9.62081 26.235 9.54137C26.3145 9.46181 26.4202 9.41806 26.5327 9.41806C26.6452 9.41806 26.7508 9.46187 26.8304 9.54137Z" />
  <path d="M19.7997 9.49763C20.1615 9.49763 20.4548 9.20432 20.4548 8.8425C20.4548 8.48069 20.1615 8.18738 19.7997 8.18738C19.4378 8.18738 19.1445 8.48069 19.1445 8.8425C19.1445 9.20432 19.4378 9.49763 19.7997 9.49763Z" />
  <path d="M16.5343 1.80458C16.8962 1.80458 17.1895 1.51124 17.1895 1.14939C17.1895 0.787539 16.8962 0.494202 16.5343 0.494202C16.1725 0.494202 15.8792 0.787539 15.8792 1.14939C15.8792 1.51124 16.1725 1.80458 16.5343 1.80458Z" />
  <path d="M24.891 18.3808L23.8858 18.4124C23.6073 18.4212 23.3887 18.6541 23.3975 18.9326C23.406 19.2057 23.6302 19.4213 23.9015 19.4213C23.9068 19.4213 23.9121 19.4213 23.9175 19.421L24.9227 19.3895C25.2013 19.3807 25.4199 19.1479 25.4112 18.8694C25.4025 18.5907 25.172 18.3718 24.891 18.3808Z" />
  <path d="M14.2887 4.37012C14.2942 4.37031 14.2995 4.37037 14.3049 4.37037C14.5761 4.37037 14.8003 4.15475 14.8089 3.88162L14.8404 2.87656C14.8492 2.59806 14.6306 2.36512 14.3521 2.35637C14.0745 2.346 13.8407 2.56625 13.8319 2.84481L13.8003 3.84993C13.7916 4.12843 14.0102 4.36131 14.2887 4.37012Z" />
  <path d="M19.5039 5.15739C19.5125 5.43052 19.7365 5.64602 20.008 5.64602C20.0133 5.64602 20.0187 5.64596 20.024 5.64577L21.0292 5.61414C21.3077 5.60539 21.5264 5.37252 21.5176 5.09402C21.5089 4.81558 21.2775 4.59614 20.9975 4.60558L19.9923 4.6372C19.7138 4.64602 19.4952 4.87889 19.5039 5.15739Z" />
</svg>
