<svg viewBox="0 0 24 24"
  xmlns="http://www.w3.org/2000/svg">
  <path d="M16.4853 10.1325L16.1103 10.5075L10.5108 16.107L9.90029 16.7175L8.57504 15.3922L7.27979 14.097L7.31953 14.0572L13.5843 7.79701L13.8595 7.52176L15.1248 8.78176L16.48 10.1265L16.4853 10.1325Z" />
  <path d="M7.071 14.5958L6.02025 17.493C5.97525 17.6333 6.00525 17.7833 6.11025 17.8883C6.18 17.958 6.27525 17.9985 6.375 17.9985C6.42 17.9985 6.45975 17.9933 6.50475 17.9783L9.40201 16.9275L7.071 14.5958Z" />
  <path d="M17.4397 6.52721C17.085 6.17696 16.6147 6.00221 16.125 5.98721C15.63 5.99246 15.165 6.19196 14.82 6.54221L14.2095 7.16546C14.2102 7.16621 14.2117 7.16696 14.2125 7.16771L15.4777 8.42771L16.8322 9.77171C16.833 9.77246 16.8337 9.77396 16.8345 9.77471L17.4547 9.14171C17.7997 8.79671 17.9895 8.33171 17.9895 7.84646V7.82621C17.9902 7.33271 17.79 6.87221 17.4397 6.52721Z" />
</svg>
