<svg viewBox="0 0 16 16" fill="none"
  xmlns="http://www.w3.org/2000/svg">
  <path d="M8 0C3.58862 0 0 3.58862 0 8C0 12.4114 3.58862 16 8 16C12.4114 16 16 12.4114 16 8C16 3.58862 12.4114 0 8 0Z" fill="#F0C64D"/>
  <path d="M11.8048 12.1379C11.6748 12.2679 11.5042 12.3334 11.3335 12.3334C11.1628 12.3334 10.9921 12.2679 10.8622 12.1379L7.52881 8.80469C7.40344 8.68005 7.3335 8.51062 7.3335 8.33337V4C7.3335 3.63135 7.63208 3.33337 8.00012 3.33337C8.36816 3.33337 8.66675 3.63135 8.66675 4V8.05737L11.8048 11.1953C12.0654 11.4561 12.0654 11.8773 11.8048 12.1379Z" fill="white"/>
</svg>
