<svg viewBox="0 0 30 26" fill="none" xmlns="http://www.w3.org/2000/svg">
  <g clip-path="url(#clip0)">
    <path d="M14.8289 12.5609C16.4172 12.5609 17.7925 11.9912 18.9162 10.8673C20.0399 9.74362 20.6096 8.36868 20.6096 6.78025C20.6096 5.19237 20.0399 3.81725 18.916 2.69317C17.7921 1.56964 16.417 1 14.8289 1C13.2405 1 11.8656 1.56964 10.7419 2.69335C9.61814 3.81707 9.04832 5.19218 9.04832 6.78025C9.04832 8.36868 9.61814 9.7438 10.742 10.8675C11.8659 11.991 13.241 12.5609 14.8289 12.5609Z" />
    <path d="M24.9435 19.4547C24.911 18.9871 24.8455 18.477 24.749 17.9383C24.6516 17.3955 24.5262 16.8825 24.376 16.4136C24.2209 15.9289 24.01 15.4502 23.7492 14.9916C23.4786 14.5155 23.1607 14.1009 22.8041 13.7598C22.4311 13.403 21.9744 13.116 21.4463 12.9067C20.9201 12.6985 20.3369 12.5931 19.7131 12.5931C19.4681 12.5931 19.2311 12.6936 18.7736 12.9915C18.4919 13.1752 18.1625 13.3876 17.7949 13.6225C17.4805 13.8228 17.0546 14.0105 16.5285 14.1804C16.0153 14.3465 15.4942 14.4307 14.9798 14.4307C14.4655 14.4307 13.9445 14.3465 13.4307 14.1804C12.9052 14.0107 12.4793 13.823 12.1653 13.6227C11.8011 13.39 11.4715 13.1775 11.1857 12.9913C10.7287 12.6934 10.4915 12.5929 10.2466 12.5929C9.62253 12.5929 9.03953 12.6985 8.51347 12.9069C7.98576 13.1158 7.52891 13.4028 7.15556 13.76C6.79906 14.1013 6.481 14.5157 6.21074 14.9916C5.95018 15.4502 5.73925 15.9287 5.58397 16.4137C5.43401 16.8827 5.30858 17.3955 5.21117 17.9383C5.11468 18.4762 5.04913 18.9865 5.01672 19.4553C4.98486 19.9145 4.96874 20.3911 4.96874 20.8725C4.96874 22.1253 5.367 23.1395 6.15233 23.8875C6.92796 24.6256 7.95427 25.0001 9.20231 25.0001H20.7584C22.0065 25.0001 23.0324 24.6258 23.8082 23.8875C24.5937 23.1401 24.992 22.1257 24.992 20.8723C24.9918 20.3888 24.9755 19.9118 24.9435 19.4547Z" />
  </g>
  <defs>
    <clipPath id="clip0">
      <rect width="23.9999" height="24" fill="white" transform="translate(3 1)"/>
    </clipPath>
  </defs>
</svg>
