<svg viewBox="0 0 50 50" fill="none"
  xmlns="http://www.w3.org/2000/svg">
  <circle cx="25" cy="25" r="25" fill="#E8F5FD"/>
  <path d="M33.593 23.4375H30.9883V25.7813C30.9883 26.2125 30.6383 26.5625 30.2071 26.5625C29.7758 26.5625 29.4258 26.2125 29.4258 25.7813V23.4375H26.8211C26.3899 23.4375 26.0399 23.7875 26.0399 24.2188V29.4266C26.0399 29.8578 26.3899 30.2078 26.8211 30.2078H33.593C34.0242 30.2078 34.3742 29.8578 34.3742 29.4266V24.2188C34.3742 23.7875 34.0242 23.4375 33.593 23.4375Z" fill="#117EFF"/>
  <path d="M34.375 31.7703H15.625C13.9016 31.7703 12.5 33.1719 12.5 34.8953C12.5 36.6188 13.9016 38.0203 15.625 38.0203H34.375C36.0984 38.0203 37.5 36.6188 37.5 34.8953C37.5 33.1719 36.0984 31.7703 34.375 31.7703ZM23.4375 34.8953C23.4375 34.0344 24.1391 33.3328 25 33.3328C25.8609 33.3328 26.5625 34.0344 26.5625 34.8953C26.5625 35.7563 25.8609 36.4578 25 36.4578C24.1391 36.4578 23.4375 35.7578 23.4375 34.8953ZM14.0625 34.8953C14.0625 34.0344 14.7641 33.3328 15.625 33.3328C16.4859 33.3328 17.1875 34.0344 17.1875 34.8953C17.1875 35.7563 16.4859 36.4578 15.625 36.4578C14.7641 36.4578 14.0625 35.7578 14.0625 34.8953ZM34.375 36.4578C33.5141 36.4578 32.8125 35.7563 32.8125 34.8953C32.8125 34.0344 33.5141 33.3328 34.375 33.3328C35.2359 33.3328 35.9375 34.0344 35.9375 34.8953C35.9375 35.7578 35.2359 36.4578 34.375 36.4578Z" fill="#87BEFF"/>
  <path d="M24.219 15.1049H20.8331V17.1877C20.8331 17.7627 20.3675 18.2299 19.7909 18.2299C19.2159 18.2299 18.7503 17.7627 18.7503 17.1877V15.1049H15.3643C14.9331 15.1049 14.5831 15.4549 14.5831 15.8862V29.4284C14.5831 29.8596 14.9331 30.2096 15.3643 30.2096H24.219C24.6503 30.2096 25.0003 29.8596 25.0003 29.4284V15.8862C25.0003 15.4549 24.6503 15.1049 24.219 15.1049Z" fill="#117EFF"/>
</svg>
