<svg viewBox="250 0 610 512"
  xmlns="http://www.w3.org/2000/svg">
  <g transform="translate(0.000000,512.000000) scale(0.100000,-0.100000)" >
    <path d="M4205 4200 l-340 -340 72 -72 73 -73 217 218 c119 119 218 217 220
217 2 0 3 -427 3 -950 l0 -950 100 0 100 0 2 950 3 949 219 -216 218 -215 72
71 71 71 -340 340 c-187 187 -342 340 -345 340 -3 0 -158 -153 -345 -340z"/>
    <path d="M3440 3471 c-83 -26 -150 -82 -191 -161 l-24 -45 0 -1010 0 -1010 23
-46 c31 -63 86 -117 152 -148 l55 -26 1095 0 1095 0 55 26 c66 31 121 85 152
148 l23 46 0 1010 0 1010 -24 45 c-32 61 -76 107 -136 138 l-50 27 -402 3
-403 3 0 -101 0 -100 363 0 c414 0 421 -1 445 -74 10 -30 12 -239 10 -975 -3
-1011 -1 -965 -55 -990 -33 -15 -2113 -15 -2146 0 -54 25 -52 -22 -55 996 -3
1048 -6 1000 62 1028 29 12 102 15 396 15 l360 0 0 100 0 100 -387 -1 c-214 0
-399 -4 -413 -8z"/>
  </g>
</svg>
