<svg viewBox="0 0 30 26" fill="none" xmlns="http://www.w3.org/2000/svg">
  <g clip-path="url(#clip0)">
    <path d="M27.7125 5.57267C27.9564 5.87141 28.0509 6.25953 27.9736 6.63684L26.1874 15.3039C26.0662 15.895 25.5401 16.3234 24.9375 16.3234H9.14962L9.5256 18.1472H24.8188C25.1719 18.1472 25.4572 18.4332 25.4572 18.7855C25.4572 19.1379 25.1719 19.4239 24.8188 19.4239H9.5256C8.92237 19.4239 8.39699 18.9956 8.27506 18.4051L5.18604 3.41116L2.38423 2.19444C2.0606 2.05464 1.91248 1.67866 2.05294 1.35498C2.1934 1.0313 2.56938 0.883221 2.8924 1.02368L5.69482 2.23974C6.07527 2.40508 6.35294 2.74659 6.43658 3.15324L6.8381 5.10279H26.7231C27.108 5.10284 27.4693 5.27392 27.7125 5.57267ZM24.9376 15.0466L26.7231 6.37953H7.1011L8.88662 15.0466H24.9376Z" />
    <path d="M26.723 6.37961L24.9375 15.0466H8.88653L7.10101 6.37961H26.723ZM22.1236 9.05558C22.1236 8.70321 21.8383 8.41721 21.4853 8.41721H12.3375C11.9845 8.41721 11.6992 8.70321 11.6992 9.05558C11.6992 9.40795 11.9845 9.69395 12.3375 9.69395H21.4853C21.8383 9.69395 22.1236 9.40795 22.1236 9.05558ZM21.6257 12.3706C21.6257 12.0183 21.3404 11.7323 20.9873 11.7323H12.8355C12.4825 11.7323 12.1971 12.0183 12.1971 12.3706C12.1971 12.723 12.4825 13.009 12.8355 13.009H20.9873C21.3403 13.0089 21.6257 12.723 21.6257 12.3706Z" />
    <path d="M20.9224 20.4561C22.1838 20.4561 23.209 21.4819 23.209 22.7427C23.209 24.0034 22.1838 25.0293 20.9224 25.0293C19.6617 25.0293 18.6358 24.0035 18.6358 22.7427C18.6358 21.4819 19.6616 20.4561 20.9224 20.4561ZM21.9323 22.7427C21.9323 22.186 21.4797 21.7328 20.9224 21.7328C20.3658 21.7328 19.9125 22.186 19.9125 22.7427C19.9125 23.2993 20.3658 23.7526 20.9224 23.7526C21.4797 23.7526 21.9323 23.2993 21.9323 22.7427Z" />
    <path d="M21.4854 8.41724C21.8384 8.41724 22.1238 8.70324 22.1238 9.05561C22.1238 9.40798 21.8384 9.69398 21.4854 9.69398H12.3377C11.9846 9.69398 11.6993 9.40798 11.6993 9.05561C11.6993 8.70324 11.9846 8.41724 12.3377 8.41724H21.4854Z" />
    <path d="M20.9223 21.7328C21.4796 21.7328 21.9322 22.186 21.9322 22.7427C21.9322 23.2993 21.4796 23.7526 20.9223 23.7526C20.3657 23.7526 19.9124 23.2993 19.9124 22.7427C19.9124 22.186 20.3657 21.7328 20.9223 21.7328Z" />
    <path d="M20.9873 11.7322C21.3404 11.7322 21.6257 12.0182 21.6257 12.3706C21.6257 12.723 21.3404 13.009 20.9873 13.009H12.8355C12.4825 13.009 12.1971 12.723 12.1971 12.3706C12.1971 12.0182 12.4825 11.7322 12.8355 11.7322H20.9873Z" />
    <path d="M12.902 20.4561C14.1627 20.4561 15.1886 21.4819 15.1886 22.7427C15.1886 24.0034 14.1628 25.0293 12.902 25.0293C11.6412 25.0293 10.6153 24.0035 10.6153 22.7427C10.6153 21.4819 11.6412 20.4561 12.902 20.4561ZM13.9119 22.7427C13.9119 22.186 13.4586 21.7328 12.902 21.7328C12.3453 21.7328 11.8921 22.186 11.8921 22.7427C11.8921 23.2993 12.3453 23.7526 12.902 23.7526C13.4586 23.7526 13.9119 23.2993 13.9119 22.7427Z" />
    <path d="M12.9019 21.7328C13.4585 21.7328 13.9118 22.186 13.9118 22.7427C13.9118 23.2993 13.4585 23.7526 12.9019 23.7526C12.3452 23.7526 11.892 23.2993 11.892 22.7427C11.892 22.186 12.3452 21.7328 12.9019 21.7328Z" />
  </g>
  <defs>
    <clipPath id="clip0">
      <rect width="26" height="26" fill="white" transform="translate(2)"/>
    </clipPath>
  </defs>
</svg>
