<svg viewBox="0 0 24 24"
  xmlns="http://www.w3.org/2000/svg">
  <path d="M19.1194 6.21374C18.5326 5.62696 17.8262 5.33356 16.9996 5.33356H13.6665C13.5761 5.33356 13.5049 5.35596 13.4529 5.40123C13.4007 5.44636 13.366 5.51408 13.3488 5.60438C13.3313 5.69464 13.3211 5.77618 13.3177 5.84908C13.3142 5.92194 13.3158 6.01402 13.3229 6.12508C13.3297 6.23621 13.3332 6.30564 13.3332 6.33352C13.354 6.38912 13.3612 6.43604 13.354 6.47416C13.3471 6.51222 13.3714 6.54359 13.4269 6.56786C13.4824 6.59216 13.5101 6.61131 13.5101 6.6251C13.5101 6.63889 13.5501 6.64925 13.6299 6.65629C13.7098 6.6633 13.7499 6.66666 13.7499 6.66666H13.8854H14H17.0001C17.4583 6.66666 17.8506 6.82978 18.177 7.15635C18.5036 7.4827 18.6667 7.87494 18.6667 8.33337V15.6666C18.6667 16.125 18.5036 16.5171 18.177 16.8435C17.8506 17.17 17.4583 17.3332 17.0001 17.3332H13.667C13.5765 17.3332 13.5051 17.3558 13.4534 17.4009C13.4012 17.4462 13.3665 17.5137 13.3492 17.6039C13.3318 17.6943 13.3213 17.7759 13.318 17.8488C13.3146 17.9216 13.3161 18.0136 13.3232 18.1247C13.3304 18.2359 13.3337 18.3053 13.3337 18.333C13.3337 18.4234 13.3664 18.5013 13.4325 18.5675C13.4985 18.6334 13.5766 18.6664 13.667 18.6664H17.0001C17.8264 18.6664 18.5331 18.3729 19.1196 17.7859C19.7065 17.1993 19.9999 16.4927 19.9999 15.6663V8.33322C19.9995 7.50682 19.7061 6.80033 19.1194 6.21374Z" />
  <path d="M16.3334 12C16.3334 11.8194 16.2673 11.6631 16.1354 11.5311L10.4687 5.86442C10.3368 5.73264 10.1807 5.66653 10 5.66653C9.81936 5.66653 9.66317 5.73264 9.53121 5.86442C9.39932 5.99638 9.33332 6.15279 9.33332 6.33324V9.3332H4.66671C4.48604 9.3332 4.32978 9.39931 4.19785 9.53109C4.06593 9.66309 4 9.81939 4 9.99995V13.9999C4 14.1805 4.06593 14.3368 4.19789 14.4687C4.32993 14.6004 4.48619 14.6667 4.66675 14.6667H9.33332V17.6666C9.33332 17.847 9.39932 18.0034 9.53121 18.1353C9.66332 18.2673 9.81951 18.3333 10 18.3333C10.1806 18.3333 10.3368 18.2673 10.4687 18.1353L16.1354 12.4688C16.2673 12.3367 16.3334 12.1804 16.3334 12Z" />
</svg>
