<svg width="24" height="24" viewBox="0 0 24 24" fill="none" xmlns="http://www.w3.org/2000/svg">
<path d="M12.0013 8.75H11.7514L11.7513 8.9999L11.75 12.3033V12.3034C11.75 12.491 11.8204 12.6729 11.9494 12.8092C11.9494 12.8092 11.9494 12.8092 11.9494 12.8092L14.1864 15.1719L14.368 15.3636L14.5495 15.1719L15.1816 14.5042L15.3443 14.3323L15.1815 14.1604L13.144 12.0084L13.1452 9.0001L13.1453 8.75H12.8952H12.0013Z" fill="#989AA3" stroke="#989AA3" stroke-width="0.5"/>
<path d="M7.39388 10.75C7.96655 8.17891 10.2601 6.25001 13 6.25001C16.1705 6.25001 18.75 8.82948 18.75 12C18.75 15.1705 16.1705 17.75 13 17.75C11.2172 17.75 9.56524 16.9438 8.46554 15.5365L8.31168 15.3396L8.11471 15.4934L7.32663 16.1086L7.12947 16.2625L7.28349 16.4596C8.66864 18.232 10.753 19.25 13 19.25C16.9979 19.25 20.25 15.9974 20.25 12C20.25 8.0026 16.9979 4.75003 13 4.75C9.42846 4.75 6.46144 7.3478 5.86664 10.75H4H3.39645L3.82322 11.1768L6.32322 13.6768L6.5 13.8536L6.67677 13.6768L9.17677 11.1768L9.60355 10.75H9H7.39388Z" fill="#989AA3" stroke="#989AA3" stroke-width="0.5"/>
</svg>
